HIERARCHY
ROOT root
{
	OFFSET 0.000000 0.000000 0.000000
	CHANNELS 6 Xposition Yposition Zposition Zrotation Yrotation Xrotation
	JOINT lhip
	{
		OFFSET 0.058581 -0.082280 -0.017664
		CHANNELS 3 Zrotation Yrotation Xrotation
		JOINT lknee
		{
			OFFSET 0.043451 -0.386469 0.008037
			CHANNELS 3 Zrotation Yrotation Xrotation
			JOINT lankle
			{
				OFFSET -0.014790 -0.426874 -0.037428
				CHANNELS 3 Zrotation Yrotation Xrotation
				JOINT ltoe
				{
					OFFSET 0.041054 -0.060286 0.122042
					CHANNELS 3 Zrotation Yrotation Xrotation
					End Site
					{
						OFFSET 0.000000 0.000000 0.000000
					}
				}
			}
		}
	}
	JOINT rhip
	{
		OFFSET -0.060310 -0.090513 -0.013543
		CHANNELS 3 Zrotation Yrotation Xrotation
		JOINT rknee
		{
			OFFSET -0.043257 -0.383688 -0.004843
			CHANNELS 3 Zrotation Yrotation Xrotation
			JOINT rankle
			{
				OFFSET 0.019056 -0.420046 -0.034562
				CHANNELS 3 Zrotation Yrotation Xrotation
				JOINT rtoe
				{
					OFFSET -0.034840 -0.062106 0.130323
					CHANNELS 3 Zrotation Yrotation Xrotation
					End Site
					{
						OFFSET 0.000000 0.000000 0.000000
					}
				}
			}
		}
	}
	JOINT lowerback
	{
		OFFSET 0.004439 0.124404 -0.038385
		CHANNELS 3 Zrotation Yrotation Xrotation
		JOINT upperback
		{
			OFFSET 0.004488 0.137956 0.026820
			CHANNELS 3 Zrotation Yrotation Xrotation
			JOINT chest
			{
				OFFSET -0.002265 0.056032 0.002855
				CHANNELS 3 Zrotation Yrotation Xrotation
				JOINT lowerneck
				{
					OFFSET -0.013390 0.211636 -0.033468
					CHANNELS 3 Zrotation Yrotation Xrotation
					JOINT upperneck
					{
						OFFSET 0.010113 0.088937 0.050410
						CHANNELS 3 Zrotation Yrotation Xrotation
						End Site
						{
							OFFSET 0.000000 0.000000 0.000000
						}
					}
				}
				JOINT lclavicle
				{
					OFFSET 0.071702 0.114000 -0.018898
					CHANNELS 3 Zrotation Yrotation Xrotation
					JOINT lshoulder
					{
						OFFSET 0.122921 0.045205 -0.019046
						CHANNELS 3 Zrotation Yrotation Xrotation
						JOINT lelbow
						{
							OFFSET 0.255332 -0.015649 -0.022946
							CHANNELS 3 Zrotation Yrotation Xrotation
							JOINT lwrist
							{
								OFFSET 0.265709 0.012698 -0.007375
								CHANNELS 3 Zrotation Yrotation Xrotation
								End Site
								{
									OFFSET 0.000000 0.000000 0.000000
								}
							}
						}
					}
				}
				JOINT rclavicle
				{
					OFFSET -0.082954 0.112472 -0.023707
					CHANNELS 3 Zrotation Yrotation Xrotation
					JOINT rshoulder
					{
						OFFSET -0.113228 0.046853 -0.008472
						CHANNELS 3 Zrotation Yrotation Xrotation
						JOINT relbow
						{
							OFFSET -0.260127 -0.014369 -0.031269
							CHANNELS 3 Zrotation Yrotation Xrotation
							JOINT rwrist
							{
								OFFSET -0.269108 0.006794 -0.006027
								CHANNELS 3 Zrotation Yrotation Xrotation
								End Site
								{
									OFFSET 0.000000 0.000000 0.000000
								}
							}
						}
					}
				}
			}
		}
	}
}
MOTION
Frames: 7
Frame Time: 0.033333
-0.064373 -0.402977 0.231536 -154.745395 84.802353 -2.934613 -0.384649 -5.786731 -15.120503 -6.625655 -12.875186 26.525792 1.491583 10.141531 8.224382 0.000000 -0.000000 0.000000 3.853518 -9.708441 4.527677 2.438902 -7.957225 61.357628 3.033228 -6.444873 15.859149 0.000000 -0.000000 0.000000 -0.100858 2.729249 37.361778 2.703788 -2.074991 7.513025 3.612513 -5.858172 -9.028835 -17.375356 13.409996 -5.236646 -8.272447 -3.304268 -2.086145 -6.029313 -38.728946 -2.821668 5.808129 -50.606123 0.466358 -2.325745 6.748128 -0.020325 3.584134 -23.978729 -4.912588 34.440289 37.546918 19.004914 60.470410 15.820840 7.483898 91.993809 77.134263 136.226009 -24.726826 4.781987 -62.063172 
-0.058552 -0.400834 0.231630 -153.374995 84.271758 -0.981774 -0.424704 -4.985033 -16.011299 -6.402591 -12.645129 26.191217 1.401448 9.542216 8.593969 0.000000 -0.000000 0.000000 3.756429 -10.816345 2.524913 1.324237 -6.842648 62.989436 5.036135 -6.328723 16.134319 0.000000 -0.000000 0.000000 -0.039902 3.235185 37.893227 2.330932 -1.760633 6.025562 3.600878 -6.032115 -7.635777 -16.960003 13.844303 -7.834892 -8.588741 -3.685425 0.518579 -3.794012 -38.773927 -4.221049 4.053146 -50.300070 0.250188 -0.203956 6.170199 1.267140 1.721570 -23.845971 -5.663271 32.857983 37.992907 17.564990 61.075585 16.729952 5.625737 90.590046 75.952674 134.407056 -23.902684 7.302340 -61.568157 
-0.034536 -0.389046 0.234974 -157.177595 84.088212 -2.556319 0.728724 -5.633029 -19.651421 -6.627193 -13.618601 25.184472 0.782537 11.198659 11.239438 0.000000 -0.000000 0.000000 6.067583 -8.826195 -3.955928 0.692383 -7.556770 67.040934 5.870457 -7.156804 15.129699 0.000000 -0.000000 0.000000 -0.502934 3.106737 41.717010 1.317371 -0.369135 -2.063038 3.737719 -6.644150 -1.764703 -15.145122 16.127141 -16.106071 -9.902058 -5.914677 7.993404 3.806415 -36.389506 -9.107189 2.051811 -51.802325 -0.348789 2.064192 5.727523 1.969116 -0.458439 -24.076338 -8.312473 27.118386 38.186889 10.678347 65.018991 18.815888 9.341012 87.159152 78.974359 127.718041 -19.536111 12.948564 -57.525792 
-0.021344 -0.372073 0.238720 -158.892411 84.121940 -1.894075 1.998356 -7.040590 -24.083295 -6.861363 -12.395831 26.818350 0.196398 11.783588 11.748008 0.000000 -0.000000 0.000000 6.792868 -6.487670 -8.882951 -0.480975 -9.658909 70.258471 7.936793 -7.221586 14.802876 0.000000 -0.000000 0.000000 -1.202914 3.438896 40.900626 2.048616 0.662751 -3.481492 3.622685 -6.687328 0.490481 -14.244734 18.045575 -18.692933 -11.933877 -8.609189 10.610341 5.442430 -33.764617 -11.169085 1.878896 -54.744180 -0.540554 3.517445 6.210370 1.632790 -3.130082 -24.607411 -7.889168 26.296355 35.629246 7.292758 64.103264 19.127907 11.679205 91.684055 78.733397 131.564615 -17.999927 12.963717 -57.282007 
-0.020641 -0.369628 0.239720 -156.552225 84.146861 0.645562 1.888701 -7.285744 -24.540306 -6.781454 -11.968474 27.170335 -0.014672 11.729604 11.634878 0.000000 -0.000000 0.000000 6.438956 -6.086389 -9.190214 -0.898477 -10.302371 70.484926 8.699978 -7.401517 15.163392 0.000000 -0.000000 0.000000 -1.692830 3.733080 40.513239 2.458353 0.665898 -2.965903 3.711772 -6.562661 0.327051 -14.241297 18.203636 -18.487114 -12.163938 -8.955484 10.447230 5.157480 -33.615458 -11.160417 2.703315 -55.289148 -1.090445 2.852286 6.886280 1.006152 -2.812614 -25.240876 -7.044026 26.657703 35.007350 7.112098 63.486397 19.016572 11.508988 91.834148 77.915488 132.335799 -18.944450 12.410235 -58.350928 
-0.020387 -0.369922 0.240190 -152.994004 84.144099 3.761218 1.436513 -7.397040 -23.879034 -6.652262 -12.044264 26.858432 -0.328782 11.969809 11.690664 0.000000 -0.000000 0.000000 5.927410 -6.167362 -8.692350 -1.236183 -10.576453 70.379908 9.625347 -7.750732 15.655495 0.000000 -0.000000 0.000000 -2.105239 4.303377 41.153051 2.728397 0.419355 -2.786441 4.013725 -6.575106 0.003703 -14.252531 18.339691 -18.247971 -12.295140 -9.318817 10.158887 5.404850 -33.870961 -11.160163 4.149987 -55.522665 -2.008757 1.056883 8.113690 0.262020 -0.870194 -26.338249 -6.969361 26.498853 34.867843 6.609035 63.472261 18.706555 12.109847 91.203725 77.971984 132.090570 -20.372286 11.843199 -58.869297 
-0.020441 -0.369816 0.240117 -152.977467 84.143986 3.773102 1.431184 -7.403625 -23.871256 -6.652243 -12.044665 26.856812 -0.329446 11.973872 11.690349 0.000000 -0.000000 0.000000 5.924170 -6.174993 -8.685085 -1.242048 -10.584061 70.377619 9.642247 -7.757351 15.668368 0.000000 -0.000000 0.000000 -2.103231 4.303699 41.163070 2.728678 0.415390 -2.789976 4.015914 -6.576682 -0.002249 -14.251435 18.339063 -18.245360 -12.295035 -9.317984 10.158423 5.407545 -33.869087 -11.161437 4.154541 -55.525021 -2.009865 1.047624 8.117544 0.259944 -0.857767 -26.343941 -6.972980 26.496162 34.866261 6.603799 63.478037 18.700951 12.120985 91.210806 77.978783 132.097066 -20.374157 11.843170 -58.864968 
